<svg version="1.1" xmlns="http://www.w3.org/2000/svg" xmlns:xlink="http://www.w3.org/1999/xlink" viewBox="0 0 172 172"><g fill="none" fill-rule="nonzero" stroke="none" stroke-width="1" stroke-linecap="butt" stroke-linejoin="miter" stroke-miterlimit="10" stroke-dasharray="" stroke-dashoffset="0" font-family="none" font-weight="none" font-size="none" text-anchor="none" style="mix-blend-mode: normal"><path d="M0,172v-172h172v172z" fill="none"></path><g fill="#e8112b "><path d="M86,21.5c-39.51595,0 -71.66667,32.15071 -71.66667,71.66667c0,22.75491 10.67907,43.05681 27.23893,56.17155c0.94813,0.75103 2.12184,1.16035 3.33138,1.16178h82.18571c1.21194,0.00014 2.38837,-0.40927 3.33838,-1.16178c16.5637,-13.1147 27.23893,-33.41664 27.23893,-56.17155c0,-39.51595 -32.15071,-71.66667 -71.66667,-71.66667zM86,32.25c33.70588,0 60.91667,27.21079 60.91667,60.91667c0,18.80323 -8.62489,35.40577 -21.98991,46.58333h-77.86051c-13.36173,-11.17756 -21.98291,-27.78032 -21.98291,-46.58333c0,-33.70588 27.21079,-60.91667 60.91667,-60.91667zM86,46.58333c-25.66289,0 -46.58333,20.92044 -46.58333,46.58333c0,11.58014 4.25461,22.23149 11.2749,30.38135c1.22864,1.53695 3.19884,2.27979 5.13636,1.93661c1.93752,-0.34318 3.53272,-1.71754 4.15871,-3.583c0.62599,-1.86545 0.18273,-3.92386 -1.15558,-5.36631c-5.40671,-6.27665 -8.66439,-14.40912 -8.66439,-23.36865c0,-19.85261 15.98073,-35.83333 35.83333,-35.83333c3.81361,0 7.47415,0.59089 10.91097,1.68669c1.84835,0.65216 3.90515,0.24661 5.3676,-1.05837c1.46245,-1.30497 2.0987,-3.30249 1.66043,-5.21289c-0.43828,-1.9104 -1.88161,-3.43083 -3.76664,-3.96784c-4.47518,-1.42687 -9.24264,-2.19759 -14.17236,-2.19759zM113.66585,59.97184c-1.39592,0.04068 -2.72121,0.62301 -3.69531,1.6237l-21.19905,21.19906c-0.90343,-0.24614 -1.83514,-0.37319 -2.77149,-0.37793c-5.93706,0 -10.75,4.81294 -10.75,10.75c0,5.93706 4.81294,10.75 10.75,10.75c3.34038,-0.00176 6.49013,-1.55623 8.52341,-4.20649c2.03328,-2.65026 2.71902,-6.09512 1.85566,-9.322l21.19206,-21.19206c1.58706,-1.54566 2.06336,-3.90666 1.19966,-5.94673c-0.8637,-2.04007 -2.89048,-3.34134 -5.10493,-3.27756zM125.11572,75.18001c-1.70486,0.04124 -3.28902,0.88899 -4.26911,2.28458c-0.98009,1.39559 -1.23983,3.17345 -0.69997,4.7911c1.0958,3.43682 1.68669,7.09737 1.68669,10.91097c0,8.95549 -3.25664,17.08768 -8.66439,23.36865c-1.29696,1.44952 -1.70973,3.48659 -1.07933,5.32665c0.6304,1.84006 2.20562,3.19605 4.11898,3.54572c1.91336,0.34967 3.86637,-0.36152 5.10684,-1.85968c7.01926,-8.1527 11.2679,-18.80434 11.2679,-30.38135c0,-4.92973 -0.77072,-9.69718 -2.19759,-14.17236c-0.70063,-2.31074 -2.85605,-3.87078 -5.27002,-3.81429z"></path></g></g></svg>